<svg width="1141" height="231" viewBox="0 0 1141 231" fill="none" xmlns="http://www.w3.org/2000/svg">
<g clip-path="url(#clip0)">
<path d="M98.5213 15.6748C98.5213 15.6748 101.022 7.61984 109.081 7.91722C117.139 8.21459 118.949 15.8817 118.949 15.8817C118.949 15.8817 122.012 8.51843 129.514 9.65621C136.965 10.7811 138.09 18.5192 138.09 18.5192C138.09 18.5192 141.095 11.9124 148.339 14.1815C154.31 16.0497 153.716 22.8958 153.716 22.8958C153.716 22.8958 157.535 18.0926 163.331 20.7431C168.223 22.9798 167.745 29.4574 167.745 29.4574C167.745 29.4574 172.088 26.335 176.909 28.3843C184.036 31.4097 181.49 40.8934 181.49 40.8934C181.49 40.8934 188.146 36.5944 192.405 42.0958C195.32 45.8582 192.58 52.6138 192.58 52.6138C192.58 52.6138 200.173 51.56 202.861 57.2683C205.588 63.0671 200.968 68.6267 200.968 68.6267C200.968 68.6267 207.805 68.7495 209.44 74.613C211.075 80.4764 205.969 84.2388 205.969 84.2388C205.969 84.2388 212.735 85.5512 213.246 92.3003C213.634 97.4784 208.8 101.144 208.8 101.144C208.8 101.144 214.907 103.833 214.564 110.427C214.222 117.021 209.239 120.053 209.239 120.053C209.239 120.053 214.325 122.936 213.879 128.599C213.388 134.825 206.848 137.146 206.848 137.146C206.848 137.146 210.318 140.197 208.994 145.55C207.669 150.902 203.281 152.777 203.281 152.777C203.281 152.777 205.414 157.632 202.622 161.886C199.914 166.017 194.932 165.422 194.932 165.422C194.932 165.422 197.827 171.389 193.174 175.552C188.521 179.722 182.705 177.937 182.705 177.937C182.705 177.937 183.72 183.536 173.051 185.443C162.381 187.35 109.669 188.391 109.669 188.391L34.5966 176.282C34.5966 176.282 26.9711 179.017 22.803 173.929C20.0048 170.51 21.2714 165.377 21.2714 165.377C21.2714 165.377 15.6492 165.506 13.2776 159.966C11.2678 155.259 13.2776 151.032 13.2776 151.032C13.2776 151.032 7.86866 149.881 7.30644 144.25C6.74423 138.619 10.3179 136.389 10.3179 136.389C10.3179 136.389 4.75385 134.65 4.58583 127.882C4.44366 122.102 8.12069 119.717 8.12069 119.717C8.12069 119.717 2.673 117.312 3.0155 109.878C3.29338 103.794 8.32748 101.829 8.32748 101.829C8.32748 101.829 3.2029 98.1443 4.43073 91.1237C5.49055 85.034 11.2549 84.3487 11.2549 84.3487C11.2549 84.3487 5.91706 81.0194 8.07545 74.1863C9.8138 68.6655 15.1969 68.6978 15.1969 68.6978C15.1969 68.6978 11.242 61.4574 15.953 55.497C19.449 51.0752 24.6188 52.5168 24.6188 52.5168C24.6188 52.5168 21.1551 45.535 26.4994 41.3071C31.3655 37.4607 36.0054 41.2619 36.0054 41.2619C36.0054 41.2619 32.9487 33.4526 38.2478 29.7871C43.5468 26.1217 49.1948 29.8841 49.1948 29.8841C49.1948 29.8841 47.534 22.036 54.817 19.6247C60.6137 17.7047 64.1614 22.3334 64.1614 22.3334C64.1614 22.3334 64.3424 15.7459 69.9969 14.4465C76.7693 12.8885 79.3284 18.6615 79.3284 18.6615C79.3284 18.6615 80.7307 10.5807 88.0848 9.97297C94.9865 9.41055 98.5213 15.6748 98.5213 15.6748Z" fill="#FFD200" stroke="black" stroke-width="4.52525" stroke-linecap="round" stroke-linejoin="round"/>
<path d="M45.3049 72.6996C43.7928 72.4927 42.5456 72.9905 41.5439 73.902V73.8956C41.6085 72.6026 41.6602 71.4842 41.699 70.5016L41.7055 70.424C41.8799 65.6661 41.6538 64.2826 40.4195 63.0673C38.8556 61.5287 35.6891 61.5093 34.1446 64.1727C33.7633 64.8321 33.4855 65.582 33.2722 66.3513C33.0654 64.5865 32.445 63.4164 31.3917 62.6406C29.886 61.5287 26.4351 61.5028 24.8971 64.1727C24.5094 64.8515 24.225 65.6143 24.0118 66.403V66.3901C23.8502 65.0002 23.4754 64.2503 22.771 63.5586C21.2072 62.02 17.9631 62.1234 16.2118 64.6576C14.8547 66.6164 14.7707 69.1246 14.7772 72.079C14.7837 79.0156 14.3959 83.6119 15.5721 87.6976C16.7482 91.7832 19.9664 97.1101 24.9811 97.6725C26.5385 97.8471 27.8439 97.957 28.9489 97.9958L28.936 97.8923H28.9683L28.9554 97.9958C29.6275 98.0216 30.222 98.0216 30.7584 97.9958H30.7778C32.1995 97.9311 33.214 97.6855 34.0283 97.2459C38.0801 95.0737 45.1175 90.6842 47.5797 84.8725C50.7849 77.3218 49.1306 73.2168 45.3049 72.6996Z" fill="#825C20"/>
<path d="M24.0048 66.403C23.8433 65.0131 23.4685 64.2632 22.7641 63.5714C21.2002 62.0329 17.9561 62.1363 16.2049 64.6704C14.8478 66.6292 14.7638 69.1375 14.7702 72.0918C14.7767 79.0284 14.389 83.6248 15.5651 87.7104C16.7412 91.7961 19.9594 97.123 24.9742 97.6854C26.5316 97.8599 27.8369 97.9698 28.942 98.0086" stroke="black" stroke-width="4.52525" stroke-miterlimit="10" stroke-linecap="round" stroke-linejoin="round"/>
<path d="M28.9422 98.0021C31.4043 98.0926 32.8906 97.8534 34.0215 97.2522C38.0734 95.0801 45.1108 90.6906 47.5729 84.8789C50.7846 77.3217 49.1238 73.2166 45.3046 72.693C41.7698 72.2082 39.6695 75.5633 38.7842 79.0801C36.516 79.371 32.7549 81.8793 31.0683 83.4243" stroke="black" stroke-width="4.52525" stroke-miterlimit="10" stroke-linecap="round" stroke-linejoin="round"/>
<path d="M33.2717 66.3577C33.0649 64.5928 32.4446 63.4292 31.3848 62.647C29.879 61.535 26.4282 61.5092 24.8902 64.1791C23.029 67.4049 23.4943 72.6478 23.4943 72.6478" stroke="black" stroke-width="4.52525" stroke-miterlimit="10" stroke-linecap="round" stroke-linejoin="round"/>
<path d="M41.5435 73.8955C41.9247 66.2478 41.9118 64.5411 40.4126 63.0672C38.8487 61.5286 35.6822 61.5092 34.1377 64.1791C32.2766 67.405 32.7419 72.6478 32.7419 72.6478" stroke="black" stroke-width="4.52525" stroke-miterlimit="10" stroke-linecap="round" stroke-linejoin="round"/>
<path d="M151.04 161.239C123.162 165.409 85.4095 158.143 77.0991 153.023C57.8092 141.141 46.4162 112.599 46.1513 111.481C44.3354 103.924 41.6471 94.9896 41.6471 94.9896L16.4249 96.2373C15.0161 107.104 17.1357 124.591 23.8823 146.248C32.1088 172.656 42.3256 186.956 50.7136 217.023L155.157 220.824L161.89 189.445" fill="#1A1A1A"/>
<path d="M151.04 161.239C123.162 165.409 85.4095 158.143 77.0991 153.023C57.8092 141.141 46.4162 112.599 46.1513 111.481C44.3354 103.924 41.6471 94.9896 41.6471 94.9896L16.4249 96.2373C15.0161 107.104 17.1357 124.591 23.8823 146.248C32.1088 172.656 42.3256 186.956 50.7136 217.023L155.157 220.824L161.89 189.445" stroke="black" stroke-width="4.52525" stroke-miterlimit="10" stroke-linecap="round" stroke-linejoin="round"/>
<path d="M143.654 166.54C143.654 166.54 128.468 195.062 107.226 207.067C107.226 207.067 88.7246 196.329 72.9244 168.693" fill="white"/>
<path d="M143.654 166.54C143.654 166.54 128.468 195.062 107.226 207.067C107.226 207.067 88.7246 196.329 72.9244 168.693" stroke="black" stroke-width="4.52525" stroke-miterlimit="10" stroke-linecap="round" stroke-linejoin="round"/>
<path d="M91.6261 193.452L105.229 176.58" stroke="black" stroke-width="4.52525" stroke-miterlimit="10" stroke-linecap="round" stroke-linejoin="round"/>
<path d="M123.957 192.548L110.334 176.101" stroke="black" stroke-width="4.52525" stroke-miterlimit="10" stroke-linecap="round" stroke-linejoin="round"/>
<path d="M114.451 202.225L108.286 187.867L113.669 181.603L109.973 179.515L104.273 179.625L101.533 181.558L107.33 187.815L101.203 202.755L107.226 207.074L114.451 202.225Z" fill="black" stroke="black" stroke-width="4.52525" stroke-miterlimit="10" stroke-linecap="round" stroke-linejoin="round"/>
<path d="M175.08 118.566C174.356 81.1744 148.565 56.1562 107.736 57.1129C68 58.0374 42.5387 83.8055 43.256 121.197C44.0638 162.926 76.0197 179.314 110.089 179.314C144.591 179.314 176.249 158.705 175.08 118.566Z" fill="#825C20" stroke="black" stroke-width="4.52525" stroke-miterlimit="10" stroke-linecap="round" stroke-linejoin="round"/>
<path d="M100.667 83.0882C100.667 83.0882 108.635 80.8902 117.908 83.6894L100.667 83.0882Z" fill="white"/>
<path d="M100.667 83.0882C100.667 83.0882 108.635 80.8902 117.908 83.6894" stroke="black" stroke-width="5.81818" stroke-miterlimit="10" stroke-linecap="round" stroke-linejoin="round"/>
<path d="M58.2937 72.4731C55.5796 72.6929 52.0835 73.9665 52.0447 80.7673C51.993 88.4861 51.8896 106.096 60.4263 106.626C68.9629 107.156 90.4629 106.555 93.0801 105.954C95.7038 105.352 98.7475 102.909 99.1934 97.5043C99.5294 93.4121 100.13 85.4671 99.9947 79.5907C99.8784 74.4578 98.5278 72.4731 95.3613 72.2921C89.5129 71.9689 62.6687 72.1176 58.2937 72.4731Z" fill="black" stroke="black" stroke-width="4.52525" stroke-miterlimit="10"/>
<path d="M158.052 70.5467C160.753 70.6631 164.268 71.8008 164.572 78.5952C164.915 86.3075 165.703 103.898 157.257 104.758C148.811 105.617 127.472 105.837 124.855 105.346C122.231 104.848 119.116 102.521 118.464 97.1423C117.973 93.0695 117.074 85.1503 116.977 79.274C116.893 74.1411 118.16 72.1047 121.294 71.8009C127.071 71.2449 153.702 70.3592 158.052 70.5467Z" fill="black" stroke="black" stroke-width="4.52525" stroke-miterlimit="10"/>
<path d="M70.4233 78.8473C70.9791 79.8364 71.3733 81.7241 69.6285 83.5083C67.7738 85.4025 65.6542 88.4215 63.4764 92.0675C62.255 94.1039 59.1208 94.5629 57.8542 91.2465C56.859 88.6477 56.6523 83.8898 56.9237 81.1875C57.2145 78.3043 59.2307 77.3152 62.5329 77.0502C65.2341 76.8368 69.1374 76.5718 70.4233 78.8473Z" fill="#414141"/>
<path d="M93.2483 97.8858C93.1966 95.2741 91.6844 94.1234 89.009 94.1751C86.9088 94.2139 84.8926 95.9982 84.9443 98.6616C84.9831 100.821 86.0752 103.155 89.1706 102.443C91.2191 101.978 93.2935 100.226 93.2483 97.8858Z" fill="#414141"/>
<path d="M135.505 77.5802C136.061 78.5693 136.455 80.4699 134.71 82.2541C132.855 84.1547 130.749 87.1802 128.571 90.8456C127.356 92.8885 124.222 93.3474 122.955 90.0246C121.96 87.4129 121.753 82.642 122.025 79.9268C122.315 77.0307 124.325 76.0416 127.621 75.7765C130.322 75.5632 134.219 75.2982 135.505 77.5802Z" fill="#414141"/>
<path d="M159.286 96.6124C159.234 94.0007 157.735 92.8435 155.079 92.8952C152.998 92.934 150.995 94.7182 151.046 97.3817C151.085 99.5409 152.171 101.875 155.24 101.163C157.27 100.705 159.331 98.9526 159.286 96.6124Z" fill="#414141"/>
<path d="M119.31 115.276C119.31 115.276 123.582 133.474 109.397 133.474C95.3352 133.474 100.292 114.022 100.292 114.022L109.442 110.208L119.31 115.276Z" fill="#B53F3C" stroke="black" stroke-width="4.52525" stroke-miterlimit="10" stroke-linecap="round" stroke-linejoin="round"/>
<path d="M109.83 112.186C108.738 115.14 106.082 117.325 100.893 117.183C96.0914 117.054 92.9636 113.505 93.1834 109.27C93.4483 104.086 98.4372 99.334 106.922 101.571" fill="white"/>
<path d="M109.83 112.186C108.738 115.14 106.082 117.325 100.893 117.183C96.0914 117.054 92.9636 113.505 93.1834 109.27C93.4483 104.086 98.4372 99.334 106.922 101.571" stroke="black" stroke-width="4.52525" stroke-miterlimit="10" stroke-linecap="round" stroke-linejoin="round"/>
<path d="M109.643 102.715C109.643 102.715 108.376 107.867 109.591 111.565C110.651 114.797 113.398 117.196 118.942 116.834C123.731 116.517 126.723 112.851 126.341 108.63C125.883 103.465 120.706 98.9008 112.318 101.467" fill="white"/>
<path d="M109.643 102.715C109.643 102.715 108.376 107.867 109.591 111.565C110.651 114.797 113.398 117.196 118.942 116.834C123.731 116.517 126.723 112.851 126.341 108.63C125.883 103.465 120.706 98.9008 112.318 101.467" stroke="black" stroke-width="4.52525" stroke-miterlimit="10" stroke-linecap="round" stroke-linejoin="round"/>
<path d="M102.961 100.672C102.851 94.9766 114.793 95.5003 114.877 99.8316C114.942 103.045 111.898 107.13 109.152 107.182C106.328 107.24 103.012 103.471 102.961 100.672Z" fill="black"/>
<path d="M271.161 210.229C258.282 210.933 225.725 210.371 219.379 210.422C212.231 210.474 205.588 206.925 203.326 201.165C199.598 191.643 207.301 184.519 216.154 179.78C216.154 179.78 226.474 173.774 248.801 173.677C271.129 173.58 292.848 176.076 292.848 176.076C300.131 180.284 305.708 186.219 304.474 197.293C303.246 208.367 292.28 214.217 276.686 211.625C260.951 209.007 252.853 197.021 258.198 187.57C262.605 179.78 272.66 182.385 275.93 186.219C279.652 190.582 285.139 192.244 288.357 191.572" fill="white"/>
<path d="M189.226 143.067C186.421 132.135 185.355 117.28 187.184 104.189C190.544 80.1209 211.359 49.5754 258.508 50.7778C306.477 51.9996 326.187 82.4934 327.473 114.739C328.313 135.71 322.633 149.254 315.589 159.985C303.989 179.289 221.117 180.013 196.056 163.78C196.735 153.133 197.362 144.173 189.226 143.067Z" fill="white" stroke="black" stroke-width="4.52525" stroke-miterlimit="10" stroke-linecap="round" stroke-linejoin="round"/>
<path d="M196.328 176.231C203.869 179.237 210.047 179.541 238.74 179.754C266.87 179.961 278.547 178.829 290.722 176.515C302.367 174.304 311.104 169.501 315.828 162.435C322.93 151.814 320.558 134.314 309.489 127.739C301.902 123.233 289.32 125.845 271.07 125.399C270.431 117.945 265.106 107.906 249.881 107.498C233.525 107.059 228.129 117.855 227.263 124.914C206.719 124.274 196.709 121.637 189.265 124.875C180.398 128.735 181.258 138.225 184.373 141.877C187.811 145.911 192.787 147.411 203.908 148.271C211.482 148.859 224.639 148.84 242.63 148.892C260.627 148.943 275.652 148.665 287.142 147.004C291.898 146.319 294.684 147.98 294.826 151.2C294.987 154.923 291.297 156.985 279.2 157.638C265.746 158.362 228.562 159.248 208.141 157.257C198.7 156.339 194.564 157.16 191.804 159.785C185.982 165.344 189.911 173.671 196.328 176.231Z" fill="#FABE3C" stroke="black" stroke-width="4.52525" stroke-miterlimit="10" stroke-linecap="round" stroke-linejoin="round"/>
<path d="M241.719 124.908C243.539 124.908 245.014 123.432 245.014 121.611C245.014 119.79 243.539 118.314 241.719 118.314C239.899 118.314 238.423 119.79 238.423 121.611C238.423 123.432 239.899 124.908 241.719 124.908Z" fill="black"/>
<path d="M255.981 125.302C257.801 125.302 259.277 123.826 259.277 122.005C259.277 120.184 257.801 118.708 255.981 118.708C254.161 118.708 252.685 120.184 252.685 122.005C252.685 123.826 254.161 125.302 255.981 125.302Z" fill="black"/>
<path d="M212.115 85.7905C216.161 79.4099 226.235 78.7311 230.442 85.7646" stroke="black" stroke-width="5.81818" stroke-miterlimit="10" stroke-linecap="round" stroke-linejoin="round"/>
<path d="M225.266 103.012C225.266 100.498 223.231 98.4612 220.717 98.4612C218.197 98.4612 216.161 100.504 216.161 103.012C216.161 105.527 218.197 107.563 220.717 107.563C223.231 107.57 225.266 105.527 225.266 103.012Z" fill="black"/>
<path d="M279.31 85.7905C283.355 79.4099 293.43 78.7311 297.637 85.7646" stroke="black" stroke-width="5.81818" stroke-miterlimit="10" stroke-linecap="round" stroke-linejoin="round"/>
<path d="M292.461 103.012C292.461 100.498 290.425 98.4612 287.911 98.4612C285.391 98.4612 283.356 100.504 283.356 103.012C283.356 105.527 285.391 107.563 287.911 107.563C290.425 107.57 292.461 105.527 292.461 103.012Z" fill="black"/>
<path d="M438.85 87.5746C449.681 63.3322 444.841 34.9783 441.842 24.3245C438.282 11.6797 432.666 1.44613 420.53 3.27562C412.155 4.53623 407.903 12.3778 407.78 18.4288C407.502 32.1209 418.934 43.253 411.088 71.3613" fill="white"/>
<path d="M438.85 87.5746C449.681 63.3322 444.841 34.9783 441.842 24.3245C438.282 11.6797 432.666 1.44613 420.53 3.27562C412.155 4.53623 407.903 12.3778 407.78 18.4288C407.502 32.1209 418.934 43.253 411.088 71.3613" stroke="black" stroke-width="4.52525" stroke-miterlimit="10" stroke-linecap="round" stroke-linejoin="round"/>
<path d="M433.357 75.1689C433.357 75.1689 438.973 46.6016 431.412 25.1842C428.246 16.2113 424.381 12.4295 420.116 15.3968C416.685 17.7887 418.055 23.762 420.239 30.2202C426.656 49.2198 423.199 63.9786 422.772 70.6889" fill="#F58C8C"/>
<path d="M433.357 75.1689C433.357 75.1689 438.973 46.6016 431.412 25.1842C428.246 16.2113 424.381 12.4295 420.116 15.3968C416.685 17.7887 418.055 23.762 420.239 30.2202C426.656 49.2198 423.199 63.9786 422.772 70.6889" stroke="black" stroke-width="4.52525" stroke-miterlimit="10" stroke-linecap="round" stroke-linejoin="round"/>
<path d="M339.512 103.232C334.814 67.0624 320.92 58.8911 312.455 48.9743C304.138 39.2385 306.51 27.1561 316.332 22.3723C323.984 18.6486 332.12 23.9949 336.837 28.1C344.424 34.7004 358.634 49.401 367.972 82.5711" fill="white"/>
<path d="M339.512 103.232C334.814 67.0624 320.92 58.8911 312.455 48.9743C304.138 39.2385 306.51 27.1561 316.332 22.3723C323.984 18.6486 332.12 23.9949 336.837 28.1C344.424 34.7004 358.634 49.401 367.972 82.5711" stroke="black" stroke-width="4.52525" stroke-miterlimit="10" stroke-linecap="round" stroke-linejoin="round"/>
<path d="M347.48 84.2844C342.013 69.4545 336.495 58.1866 323.434 45.9749C318.096 40.9842 316.978 36.5365 319.731 33.7696C321.47 32.0177 325.224 31.6492 330.75 37.1119C343.28 49.4981 352.062 62.1753 357.381 81.1426" fill="#F58C8C"/>
<path d="M347.48 84.2844C342.013 69.4545 336.495 58.1866 323.434 45.9749C318.096 40.9842 316.978 36.5365 319.731 33.7696C321.47 32.0177 325.224 31.6492 330.75 37.1119C343.28 49.4981 352.062 62.1753 357.381 81.1426" stroke="black" stroke-width="4.52525" stroke-miterlimit="10" stroke-linecap="round" stroke-linejoin="round"/>
<path d="M475.207 124.333C472.7 106.484 463.485 87.8528 450.327 77.755C432.834 64.3279 409.9 59.6798 387.889 60.934C373.588 61.7485 359.726 65.6596 347.862 73.6887C336.579 81.3235 326.194 90.9429 320.585 103.439C314.794 116.336 312.274 130.358 313.618 144.406C314.956 158.363 319.622 172.035 327.422 183.704C332.553 191.384 338.963 198.288 342.815 206.686C347.345 216.551 346.117 220.113 348.114 230.786C350.111 241.453 451.652 242.978 452.253 232.228C452.854 221.477 451.303 210.5 454.483 200.215C456.977 192.121 462.179 184.771 466.166 177.304C475.252 160.289 477.702 142.699 475.265 124.714C475.246 124.585 475.227 124.462 475.207 124.333Z" fill="white" stroke="black" stroke-width="4.52525" stroke-miterlimit="10" stroke-linecap="round" stroke-linejoin="round"/>
<path d="M396.949 199.672C453.268 196.077 465.733 161.271 463.943 131.515C462.832 113.084 447.936 70.4755 390.461 74.1474C332.986 77.8193 324.3 122.884 325.547 141.309C326.775 167.995 340.63 203.266 396.949 199.672Z" fill="#FFD200" stroke="black" stroke-width="4.52525" stroke-linecap="round" stroke-linejoin="round"/>
<path d="M409.537 148.181C409.537 148.181 412.6 168.519 397.162 168.389C382.421 168.266 384.334 149.383 384.334 149.383L396.696 142.563L409.537 148.181Z" fill="#B53F3C" stroke="black" stroke-width="4.52525" stroke-miterlimit="10" stroke-linecap="round" stroke-linejoin="round"/>
<path d="M396.671 138.497C396.671 138.497 398.978 147.974 389.569 149.428C381.465 150.683 377.743 146.248 377.801 141.542" fill="#FFD200"/>
<path d="M396.671 138.497C396.671 138.497 398.978 147.974 389.569 149.428C381.465 150.683 377.743 146.248 377.801 141.542" stroke="black" stroke-width="4.52525" stroke-linecap="round" stroke-linejoin="round"/>
<path d="M396.91 138.477C396.91 138.477 396.07 147.431 405.582 147.883C413.356 148.252 416.271 143.474 416.206 138.148" fill="#FFD200"/>
<path d="M396.91 138.477C396.91 138.477 396.07 147.431 405.582 147.883C413.356 148.252 416.271 143.474 416.206 138.148" stroke="black" stroke-width="4.52525" stroke-linecap="round" stroke-linejoin="round"/>
<path d="M405.737 132.594C405.446 128.043 400.852 126.078 396.302 126.369C391.759 126.66 387.449 129.194 387.74 133.745C388.03 138.303 392.619 140.061 397.162 139.77C401.705 139.479 406.028 137.152 405.737 132.594Z" fill="black"/>
<path d="M430.843 100.653C419.243 110.944 411.637 121.508 411.637 121.508C411.637 121.508 422.739 129.246 435.16 135.148" stroke="black" stroke-width="4.52525" stroke-miterlimit="10" stroke-linecap="round" stroke-linejoin="round"/>
<path d="M437.913 118.069L411.644 121.508" stroke="black" stroke-width="4.52525" stroke-miterlimit="10" stroke-linecap="round" stroke-linejoin="round"/>
<path d="M356.65 106.548C370.04 114.364 379.565 123.24 379.565 123.24C379.565 123.24 370.195 133.002 359.17 141.225" stroke="black" stroke-width="4.52525" stroke-miterlimit="10" stroke-linecap="round" stroke-linejoin="round"/>
<path d="M353.128 125.005L379.565 123.234" stroke="black" stroke-width="4.52525" stroke-miterlimit="10" stroke-linecap="round" stroke-linejoin="round"/>
<path d="M478.186 156.83L472.156 185.495V222.647L562.26 226.649C562.26 226.649 582.571 217.365 580.419 195.418C579.411 185.146 559.132 179.786 559.132 179.786L554.563 156.837H478.186V156.83Z" fill="#FFD677"/>
<path d="M465.164 158.265C460.408 155.253 455.645 154.328 450.553 157.347C440.815 163.12 441.273 174.705 447.432 186.413C452.33 195.722 459.988 203.363 469.714 210.422" fill="#FFD677"/>
<path d="M465.164 158.266L492.855 176.91L479.013 199.924L481.759 214.224L469.707 210.422" fill="#FFD677"/>
<path d="M584.225 143.778C584.219 128.735 578.551 115.515 568.897 105.785C569.097 99.3467 567.494 95.5972 564.631 93.5608C561.097 91.0461 556.411 90.4772 549.923 93.4445C542.492 90.8392 534.756 89.3265 525.838 88.9774C516.921 88.6283 509.03 89.6497 501.476 91.5568C495.24 88.0917 490.891 88.5249 487.168 90.7552C484.157 92.5653 482.179 96.7156 481.591 102.379C471.213 111.326 464.873 124.087 463.697 139.085C461.087 172.371 482.115 191.778 521.761 193.33C564.263 194.998 584.231 177.175 584.225 143.778Z" fill="#FFD677" stroke="black" stroke-width="4.52525" stroke-miterlimit="10" stroke-linecap="round" stroke-linejoin="round"/>
<path d="M506.958 133.359C509.595 132.965 511.506 131.131 511.227 129.263C510.947 127.395 508.584 126.2 505.947 126.595C503.31 126.989 501.399 128.823 501.678 130.691C501.957 132.559 504.321 133.753 506.958 133.359Z" fill="black"/>
<path d="M530.097 155.111C530.097 155.111 530.11 162.578 522.956 162.293C515.803 162.009 516.468 154.62 516.468 154.62L523.376 151.362L530.097 155.111Z" fill="#B53F3C" stroke="black" stroke-width="4.52525" stroke-miterlimit="10" stroke-linecap="round" stroke-linejoin="round"/>
<path d="M546.43 133.007C546.853 131.167 545.091 129.189 542.493 128.59C539.895 127.992 537.445 128.998 537.021 130.839C536.597 132.679 538.36 134.657 540.958 135.256C543.556 135.854 546.006 134.848 546.43 133.007Z" fill="black"/>
<path d="M523.952 139.072C513.832 138.671 507.802 144.328 508.707 150.178C509.689 156.565 517.968 159.093 523.409 153.314C528.391 159.507 536.837 157.639 538.304 151.348C539.648 145.595 534.072 139.473 523.952 139.072Z" fill="white" stroke="black" stroke-width="4.52525" stroke-miterlimit="10" stroke-linecap="round" stroke-linejoin="round"/>
<path d="M503.943 142.427L509.488 144.709" stroke="black" stroke-width="4.52525" stroke-miterlimit="10" stroke-linecap="round" stroke-linejoin="round"/>
<path d="M503.324 154.109L508.623 152.073" stroke="black" stroke-width="4.52525" stroke-miterlimit="10" stroke-linecap="round" stroke-linejoin="round"/>
<path d="M544.786 143.591L538.653 145.866" stroke="black" stroke-width="4.52525" stroke-miterlimit="10" stroke-linecap="round" stroke-linejoin="round"/>
<path d="M544.081 155.731L538.95 153.275" stroke="black" stroke-width="4.52525" stroke-miterlimit="10" stroke-linecap="round" stroke-linejoin="round"/>
<path d="M631.691 68.7717C629.623 59.3333 620.227 45.2469 603.341 52.3321C586.565 59.3657 590.843 77.7705 596.135 83.3624" fill="#FAAA30"/>
<path d="M631.691 68.7717C629.623 59.3333 620.227 45.2469 603.341 52.3321C586.565 59.3657 590.843 77.7705 596.135 83.3624" stroke="black" stroke-width="4.52525" stroke-miterlimit="10" stroke-linecap="round" stroke-linejoin="round"/>
<path d="M682.193 66.2182C682.794 56.5794 689.993 41.2065 707.919 45.596C725.73 49.9596 724.301 68.7976 719.888 75.1394" fill="#FAAA30"/>
<path d="M682.193 66.2182C682.794 56.5794 689.993 41.2065 707.919 45.596C725.73 49.9596 724.301 68.7976 719.888 75.1394" stroke="black" stroke-width="4.52525" stroke-miterlimit="10" stroke-linecap="round" stroke-linejoin="round"/>
<path d="M573.653 144.091C569.595 91.5726 607.606 57.4586 654.729 53.819C700.352 50.2894 744.373 77.4732 748.483 130.658C752.606 184.03 715.855 212.099 667.388 216.295C620.556 220.342 577.782 197.457 573.653 144.091Z" fill="#FAAA30" stroke="black" stroke-width="4.52525" stroke-miterlimit="10" stroke-linecap="round" stroke-linejoin="round"/>
<path d="M657.397 142.624C645.533 139.217 637.099 146.412 636.731 154.196C636.427 160.544 642.269 166.53 648.99 166.744C656.247 166.976 660.687 162.962 662.212 158.527C663.892 162.904 667.718 166.032 674.968 165.548C681.676 165.101 687.027 160.615 687.059 152.87C687.092 145.08 678.342 136.366 664.952 142.495L661.204 144.344" fill="white"/>
<path d="M657.397 142.624C645.533 139.217 637.099 146.412 636.731 154.196C636.427 160.544 642.269 166.53 648.99 166.744C656.247 166.976 660.687 162.962 662.212 158.527C663.892 162.904 667.718 166.032 674.968 165.548C681.676 165.101 687.027 160.615 687.059 152.87C687.092 145.08 678.342 136.366 664.952 142.495L661.204 144.344" stroke="black" stroke-width="4.52525" stroke-miterlimit="10" stroke-linecap="round" stroke-linejoin="round"/>
<path d="M653.203 141.286C652.874 144.253 657.507 150.214 661.378 149.968C664.855 149.748 668.681 144.415 668.965 140.355C669.295 135.61 654.115 133.05 653.203 141.286Z" fill="black"/>
<path d="M680.933 102.291C680.701 102.31 694.368 100.901 710.569 100.578" stroke="black" stroke-width="5.81818" stroke-miterlimit="10" stroke-linecap="round" stroke-linejoin="round"/>
<path d="M606.636 107.45C606.636 107.45 620.272 106.17 636.292 105.995" stroke="black" stroke-width="5.81818" stroke-miterlimit="10" stroke-linecap="round" stroke-linejoin="round"/>
<path d="M695.88 127.49C699.164 127.49 701.826 124.827 701.826 121.543C701.826 118.258 699.164 115.595 695.88 115.595C692.597 115.595 689.935 118.258 689.935 121.543C689.935 124.827 692.597 127.49 695.88 127.49Z" fill="black"/>
<path d="M625.636 132.468C628.919 132.468 631.581 129.805 631.581 126.52C631.581 123.236 628.919 120.573 625.636 120.573C622.352 120.573 619.69 123.236 619.69 126.52C619.69 129.805 622.352 132.468 625.636 132.468Z" fill="black"/>
<path d="M683.097 162.335C682.645 150.556 687.828 145.229 687.828 145.229C687.828 145.229 703.408 145.695 699.796 158.365C694.729 176.078 683.097 162.335 683.097 162.335Z" fill="#FAAA30"/>
<path d="M687.828 145.229C687.828 145.229 682.645 150.556 683.097 162.335L687.828 145.229Z" fill="#FAAA30"/>
<path d="M687.828 145.229C687.828 145.229 682.645 150.556 683.097 162.335" stroke="black" stroke-width="4.52525" stroke-miterlimit="10" stroke-linecap="round" stroke-linejoin="round"/>
<path d="M770.785 216.958C770.862 212.297 770.849 206.182 766.19 201.986C760.859 197.189 728.463 182.98 718.964 178.752C709.038 174.337 707.448 165.273 710.789 159.843C706.756 156.934 704.637 152.098 708.03 148.937C711.455 145.75 716.476 150.023 720.495 152.719C731.52 160.128 757.395 174.001 761.531 176.509L848.784 186.187L841.999 223.992" fill="white"/>
<path d="M770.785 216.958C770.862 212.297 770.849 206.182 766.19 201.986C760.859 197.189 728.463 182.98 718.964 178.752C709.038 174.337 707.448 165.273 710.789 159.843C706.756 156.934 704.637 152.098 708.03 148.937C711.455 145.75 716.476 150.023 720.495 152.719C731.52 160.128 757.395 174.001 761.531 176.509L848.784 186.187L841.999 223.992" stroke="black" stroke-width="4.52525" stroke-miterlimit="10" stroke-linecap="round" stroke-linejoin="round"/>
<path d="M851.892 198.469C851.892 198.469 856.745 203.719 855.595 210.422C854.374 217.508 849.669 219.835 835.575 220.223C822.301 220.591 814.754 218.316 814.346 211.554C814.004 205.852 818.185 202.128 823.988 201.146" fill="white"/>
<path d="M871.621 105.805C859.162 90.9103 835.058 72.5701 827.258 68.2517C824.014 66.4546 821.532 66.823 818.624 69.0533C808.66 76.6816 798.456 81.8533 781.266 90.2638C763.708 98.8554 746.002 110.673 742.021 135.077C738.57 156.21 744.993 170.115 755.831 180.2C769.724 193.129 798.63 199.193 814.792 200.635C833.184 202.277 855.976 200.686 870.756 190.408C880.52 183.613 886.659 172.688 889.024 161.246C893.031 141.832 887.454 124.727 871.621 105.805Z" fill="#FFCDCD" stroke="black" stroke-width="4.52525" stroke-miterlimit="10" stroke-linecap="round" stroke-linejoin="round"/>
<path d="M756.309 133.571C755.986 113.873 772.426 107.156 785.182 109.244C799.994 111.668 808.091 123.557 803.07 141.49C798.701 140.261 790.055 137.133 778.203 135.503C766.913 133.946 761.317 133.803 756.309 133.571Z" fill="white" stroke="black" stroke-width="4.52525" stroke-miterlimit="10" stroke-linecap="round" stroke-linejoin="round"/>
<path d="M822.547 142.55C821.145 123.072 837.016 115.508 849.74 116.866C864.513 118.443 873.173 129.763 869.192 147.786C864.81 146.81 856.093 144.199 844.293 143.242C833.048 142.337 827.51 142.505 822.547 142.55Z" fill="white" stroke="black" stroke-width="4.52525" stroke-miterlimit="10" stroke-linecap="round" stroke-linejoin="round"/>
<path d="M777.712 120.376C777.712 117.862 775.677 115.825 773.163 115.825C770.643 115.825 768.607 117.868 768.607 120.376C768.607 122.891 770.643 124.927 773.163 124.927C775.677 124.934 777.712 122.891 777.712 120.376Z" fill="black"/>
<path d="M843.834 129.582C843.834 127.067 841.798 125.031 839.285 125.031C836.764 125.031 834.729 127.074 834.729 129.582C834.729 132.097 836.764 134.133 839.285 134.133C841.798 134.133 843.834 132.097 843.834 129.582Z" fill="black"/>
<path d="M810.088 156.643C824.098 158.492 831.09 152.331 838.47 157.535C841.96 159.992 842.877 163.935 841.145 167.407C838.115 173.49 827.652 178.985 807.406 176.393C797.7 175.151 789.157 172.721 782.255 166.857C778.067 163.295 777.104 157.121 779.444 153.411C781.68 149.862 785.021 149.079 789.725 149.758C795.839 150.644 799.057 155.188 810.088 156.643Z" fill="white" stroke="black" stroke-width="4.52525" stroke-miterlimit="10" stroke-linecap="round" stroke-linejoin="round"/>
<path d="M797.241 153.514L788.827 170.212" stroke="black" stroke-width="4.52525" stroke-miterlimit="10" stroke-linecap="round" stroke-linejoin="round"/>
<path d="M809.559 157.729L807.341 174.977" stroke="black" stroke-width="4.52525" stroke-miterlimit="10" stroke-linecap="round" stroke-linejoin="round"/>
<path d="M822.864 157.619L823.989 175.475" stroke="black" stroke-width="4.52525" stroke-miterlimit="10" stroke-linecap="round" stroke-linejoin="round"/>
<path d="M900.895 202.038L907.7 159.895L991.335 162.164L986.23 188.061C986.23 188.061 997.571 192.903 995.871 207.597C994.172 222.291 971.205 228.814 971.205 228.814H900.895V202.038Z" fill="#769ECD"/>
<path d="M1008.78 105.249L1015.08 155.072C1011.43 168.124 1008.53 192.476 959.392 197.312C954.933 197.752 950.151 197.338 945.356 196.963C940.561 196.588 935.83 196.013 931.43 195.14C885.302 185.992 883.137 158.712 881.547 145.252L896.831 96.5604" fill="#769ECD"/>
<path d="M1008.78 105.249L1015.08 155.072C1011.43 168.124 1008.53 192.476 959.392 197.312C954.933 197.752 950.151 197.338 945.356 196.963C940.561 196.588 935.83 196.013 931.43 195.14C885.302 185.992 883.137 158.712 881.547 145.252L896.831 96.5604" stroke="black" stroke-width="4.52525" stroke-miterlimit="10" stroke-linecap="round" stroke-linejoin="round"/>
<path d="M993.635 133.616C993.584 151.071 990.908 166.773 990.908 166.773C1008.6 169.838 1028.61 165.39 1028.61 165.39C1040.35 132.323 1036.06 101.403 1025.4 84.4913C1015.02 68.0388 996.705 53.0537 963.573 50.2287C930.441 47.4036 909.27 54.1786 890 71.8206C869.747 90.3547 863.317 115.302 865.262 144.38C865.262 144.38 878.148 153.133 895.894 149.829C895.894 149.829 896.553 138.846 902.097 119.795C902.097 119.795 920.353 127.281 946.933 131.431C975.754 135.937 993.635 133.616 993.635 133.616Z" fill="black" stroke="black" stroke-width="4.52525" stroke-miterlimit="10" stroke-linecap="round" stroke-linejoin="round"/>
<path d="M875.221 136.952C875.221 136.952 875.537 128.69 878.697 119.445C882.988 131.864 887.919 139.699 887.919 139.699L891.745 118.327" stroke="#494848" stroke-width="4.52525" stroke-miterlimit="10" stroke-linecap="round" stroke-linejoin="round"/>
<path d="M1004.41 159.009C1004.41 159.009 1005.06 152.111 1007.13 139.318L1019.14 157.658L1021.41 143.1" stroke="#494848" stroke-width="4.52525" stroke-miterlimit="10" stroke-linecap="round" stroke-linejoin="round"/>
<path d="M908.237 106.012L916.308 98.7522L921.426 106.859L933.078 94.7635L938.028 109.736L955.269 89.0746L963.87 112.58L975.289 98.8297L981.105 115.347L990.624 106.322L996.543 115.916" stroke="#494848" stroke-width="4.52525" stroke-miterlimit="10" stroke-linecap="round" stroke-linejoin="round"/>
<path d="M910.35 42.3351C913.988 41.5788 919.461 44.4943 932.651 62.5501L931.074 62.8733C919.151 65.3687 907.526 69.965 901.574 73.8762C901.574 73.8762 902.382 54.1848 906.996 45.0891C907.959 43.1949 909.406 42.5356 910.35 42.3351Z" fill="#769ECD" stroke="black" stroke-width="4.52525" stroke-miterlimit="10" stroke-linecap="round" stroke-linejoin="round"/>
<path d="M913.096 54.6828C915.681 54.0945 922.758 64.9293 922.758 64.9293C922.758 64.9293 913.62 67.7284 910.505 69.28C910.505 69.28 911.481 55.1353 913.096 54.6828Z" fill="#F58C8C" stroke="black" stroke-width="4.52525" stroke-miterlimit="10" stroke-linecap="round" stroke-linejoin="round"/>
<path d="M1017.27 57.8114C1020.23 60.0611 1020.09 70.7277 1015.72 90.5096L1014.58 89.3782C1005.92 80.8126 995.665 73.6498 989.125 70.8441C989.125 70.8441 1004.48 58.1152 1013 57.0873C1015.11 56.8352 1016.51 57.2296 1017.27 57.8114Z" fill="#769ECD" stroke="black" stroke-width="4.52525" stroke-miterlimit="10" stroke-linecap="round" stroke-linejoin="round"/>
<path d="M1009.32 68.6852C1011.83 70.7603 1006.56 82.2286 1006.56 82.2286C1006.56 82.2286 1000.89 77.4965 997.881 75.7575C997.875 75.7575 1006.95 67.6961 1009.32 68.6852Z" fill="#F58C8C" stroke="black" stroke-width="4.52525" stroke-miterlimit="10" stroke-linecap="round" stroke-linejoin="round"/>
<path d="M943.805 161.905C943.805 161.905 940.807 173.367 931.178 170.367C925.304 168.538 924.386 163.127 925.918 159.649C927.695 155.615 933.653 152.926 939.831 156.365" fill="white"/>
<path d="M943.805 161.905C943.805 161.905 940.807 173.367 931.178 170.367C925.304 168.538 924.386 163.127 925.918 159.649C927.695 155.615 933.653 152.926 939.831 156.365" stroke="black" stroke-width="4.52525" stroke-miterlimit="10" stroke-linecap="round" stroke-linejoin="round"/>
<path d="M942.39 159.384C942.848 159.397 940.761 164.562 942.299 168.215C943.889 171.99 948.141 173.393 951.637 173.134C958.707 172.611 961.331 164.2 956.439 159.733C951.618 155.337 945.53 157.625 945.53 157.625" fill="white"/>
<path d="M942.39 159.384C942.848 159.397 940.761 164.562 942.299 168.215C943.889 171.99 948.141 173.393 951.637 173.134C958.707 172.611 961.331 164.2 956.439 159.733C951.618 155.337 945.53 157.625 945.53 157.625" stroke="black" stroke-width="4.52525" stroke-miterlimit="10" stroke-linecap="round" stroke-linejoin="round"/>
<path d="M936.891 154.859C937.692 149.125 949.595 151.562 948.988 155.925C948.536 159.164 944.826 162.771 942.06 162.383C939.217 161.989 936.496 157.677 936.891 154.859Z" fill="black"/>
<path d="M957.298 147.457C957.298 147.457 960.762 153.714 972.918 154.231C981.009 154.574 985.984 150.534 985.984 150.534" stroke="black" stroke-width="4.52525" stroke-miterlimit="10" stroke-linecap="round" stroke-linejoin="round"/>
<path d="M904.165 140.307C904.165 140.307 906.776 146.073 917.904 147.172C926.441 148.013 931.281 143.675 931.281 143.675" stroke="black" stroke-width="4.52525" stroke-miterlimit="10" stroke-linecap="round" stroke-linejoin="round"/>
<path d="M1029.97 226.823L1035.63 169.96H1116.31V236.889L1029.97 226.823Z" fill="#BE8E3C"/>
<path d="M1119.29 58.5935L1096.08 52.4133L1064.93 56.5119L1033.54 58.0117L1012.63 67.8768C995.755 91.421 1000.15 162.164 1033.73 183.038L1075.8 184.635L1093.24 188.281L1115.08 176.58C1146.66 148.64 1143.22 78.4594 1119.29 58.5935Z" fill="#BE8E3C" stroke="black" stroke-width="4.52525" stroke-miterlimit="10" stroke-linecap="round" stroke-linejoin="round"/>
<path d="M1030.84 67.864C1024.65 74.2058 1012.21 78.9315 1004.39 69.8099C994.772 58.5937 1000.12 41.9084 1009.63 36.5363C1018.69 31.4293 1030.92 28.7012 1038.42 40.6672C1040.5 43.9901 1042.37 50.5129 1042.37 50.5129C1042.37 50.5129 1065 44.2551 1083.01 46.8733C1083.01 46.8733 1082.55 31.6555 1093.36 27.5117C1107.07 22.2624 1124.91 29.7355 1125.48 46.3109C1126.08 63.2612 1118.91 67.321 1107.52 65.3687" fill="#BE8E3C"/>
<path d="M1042.37 50.513C1042.37 50.513 1064.06 44.3392 1082.07 46.9574" stroke="black" stroke-width="4.52525" stroke-miterlimit="10" stroke-linecap="round" stroke-linejoin="round"/>
<path d="M1122.34 61.5028C1124.69 57.8179 1125.73 53.3121 1125.49 46.3109C1124.9 29.7355 1106.8 22.2624 1093.36 27.5117C1085.27 30.6729 1083.8 38.6179 1083.19 44.3521C1081.94 56.0789 1086.86 60.6171 1094.65 62.104C1103.38 63.7719 1113.72 60.74 1115.71 45.8713" fill="#C39141"/>
<path d="M1122.34 61.5028C1124.69 57.8179 1125.73 53.3121 1125.49 46.3109C1124.9 29.7355 1106.8 22.2624 1093.36 27.5117C1085.27 30.6729 1083.8 38.6179 1083.19 44.3521C1081.94 56.0789 1086.86 60.6171 1094.65 62.104C1103.38 63.7719 1113.72 60.74 1115.71 45.8713" stroke="black" stroke-width="4.52525" stroke-miterlimit="10" stroke-linecap="round" stroke-linejoin="round"/>
<path d="M1029.57 44.63C1029.52 50.7261 1038.24 60.2874 1030.84 67.8639C1024.65 74.2057 1012.01 79.1059 1004.4 69.8098C994.133 57.2942 1000.12 41.9084 1009.64 36.5362C1018.69 31.4292 1030.92 28.7011 1038.42 40.6671C1040.5 43.99 1042.37 50.5128 1042.37 50.5128" fill="#C39141"/>
<path d="M1029.57 44.63C1029.52 50.7261 1038.24 60.2874 1030.84 67.8639C1024.65 74.2057 1012.01 79.1059 1004.4 69.8098C994.133 57.2942 1000.12 41.9084 1009.64 36.5362C1018.69 31.4292 1030.92 28.7011 1038.42 40.6671C1040.5 43.99 1042.37 50.5128 1042.37 50.5128" stroke="black" stroke-width="4.52525" stroke-miterlimit="10" stroke-linecap="round" stroke-linejoin="round"/>
<path d="M1014.07 115.489C1014.83 123.008 1022.09 126.932 1035.2 126.007C1050.15 124.954 1054.97 118.967 1054.21 111.449C1053.61 105.404 1047.83 99.1272 1032.63 100.446C1021.99 101.37 1013.19 106.749 1014.07 115.489Z" fill="white" stroke="black" stroke-width="4.52525" stroke-miterlimit="10" stroke-linecap="round" stroke-linejoin="round"/>
<path d="M1053.24 131.56C1053.65 136.072 1058.58 137.255 1064.54 136.725C1071.9 136.072 1075.08 133.506 1074.72 128.877C1074.36 124.249 1069.14 123.415 1062.9 123.977C1055.82 124.611 1052.84 127.1 1053.24 131.56Z" fill="black"/>
<path d="M1076.62 110.375C1077.37 117.894 1084.64 121.818 1097.75 120.893C1112.7 119.84 1117.52 113.853 1116.76 106.335C1116.15 100.291 1110.38 94.0135 1095.18 95.3323C1084.53 96.2567 1075.74 101.635 1076.62 110.375Z" fill="white" stroke="black" stroke-width="4.52525" stroke-miterlimit="10" stroke-linecap="round" stroke-linejoin="round"/>
<path d="M1065.96 149.836C1078.05 149.26 1078.4 142.815 1085.32 145.213C1088.01 146.151 1089.39 149.228 1088.45 152.383C1087.15 156.733 1080.8 162.248 1067.19 163.101C1060.66 163.508 1054.9 162.933 1049.39 160.418C1046.05 158.893 1044.42 155.615 1045.53 152.35C1046.43 149.693 1049.08 148.245 1051.85 148.271C1055.72 148.31 1058.53 150.191 1065.96 149.836Z" fill="#B53F3C" stroke="black" stroke-width="4.52525" stroke-miterlimit="10" stroke-linecap="round" stroke-linejoin="round"/>
<path d="M1030.01 115.263C1030.01 112.748 1027.97 110.712 1025.46 110.712C1022.94 110.712 1020.9 112.754 1020.9 115.263C1020.9 117.778 1022.94 119.814 1025.46 119.814C1027.97 119.82 1030.01 117.778 1030.01 115.263Z" fill="black"/>
<path d="M1092.55 110.149C1092.55 107.634 1090.52 105.598 1088 105.598C1085.48 105.598 1083.45 107.641 1083.45 110.149C1083.45 112.664 1085.48 114.7 1088 114.7C1090.52 114.707 1092.55 112.664 1092.55 110.149Z" fill="black"/>
<path d="M1083.48 158.395C1084.88 154.258 1087.88 147.282 1092.52 143.998C1092.52 143.998 1097.19 138.833 1102.44 143.998C1107.69 149.163 1098.74 161.705 1094.95 165.15C1091.12 168.622 1086.44 162.5 1083.48 158.395Z" fill="#BE8E3C"/>
<path d="M1092.52 143.998C1087.89 147.282 1084.88 154.257 1083.48 158.395L1092.52 143.998Z" fill="#B53F3C"/>
<path d="M1092.52 143.998C1087.89 147.282 1084.88 154.257 1083.48 158.395" stroke="black" stroke-width="4.52525" stroke-miterlimit="10" stroke-linecap="round" stroke-linejoin="round"/>
<path d="M1117.48 172.21C1121.11 172.326 1113.32 183.827 1110.8 186.193C1101.01 195.353 1095.54 200.027 1072.02 198.812C1048.49 197.596 1026.86 194.338 1023.5 193.052C1019.17 191.397 1021.55 179.838 1026.77 177.64C1027.44 177.362 1032.17 182.876 1066.96 183.025C1103 183.18 1114.82 172.837 1117.48 172.21Z" fill="#D22323" stroke="black" stroke-width="4.52525" stroke-miterlimit="10" stroke-linecap="round" stroke-linejoin="round"/>
<path d="M656.572 53.4123C656.224 53.1196 656.123 40.7984 656.123 40.7984L686.084 41.1545C686.084 41.1545 687.01 53.2442 687.002 54.2053C686.987 55.1656 656.572 53.4123 656.572 53.4123Z" fill="#00A03C"/>
<path d="M656.727 46.0457C646.485 46.2709 643.289 44.6397 643.412 40.4773C643.513 37.0575 646.1 35.7929 646.1 35.7929C642.972 33.9902 642.694 30.3111 643.703 27.512C646.539 19.6306 656.237 21.2897 656.237 21.2897C656.237 21.2897 661.213 3.61355 676.68 3.59573C686.132 3.58667 693.093 8.25248 695.494 16.3766C697.983 24.8023 694.526 34.5066 690.687 41.0894C690.687 41.0894 696.301 46.1197 695.191 52.4069C693.749 60.5632 687.518 62.6565 679.653 62.6912C672.227 62.7242 670.512 58.6639 671.586 55.0442C672.699 51.3119 676.531 49.8443 680.526 49.8531" fill="#00A03C"/>
<path d="M656.727 46.0457C646.485 46.2709 643.289 44.6397 643.412 40.4773C643.513 37.0575 646.1 35.7929 646.1 35.7929C642.972 33.9902 642.694 30.3111 643.703 27.512C646.539 19.6306 656.237 21.2897 656.237 21.2897C656.237 21.2897 661.213 3.61355 676.68 3.59573C686.132 3.58667 693.093 8.25249 695.494 16.3766C697.983 24.8023 694.526 34.5066 690.687 41.0894C690.687 41.0894 696.301 46.1197 695.191 52.4069C693.749 60.5632 687.518 62.6565 679.653 62.6912C672.227 62.7242 670.512 58.6639 671.586 55.0442C672.699 51.3119 676.531 49.8443 680.526 49.8531" stroke="black" stroke-width="4.52525" stroke-miterlimit="10" stroke-linecap="round" stroke-linejoin="round"/>
<path d="M652.193 34.2718C652.193 34.2718 653.363 27.4776 656.976 27.4364C660.856 27.3979 660.716 34.6698 660.716 34.6698" fill="white"/>
<path d="M652.193 34.2718C652.193 34.2718 653.363 27.4776 656.976 27.4364C660.856 27.3979 660.716 34.6698 660.716 34.6698" stroke="black" stroke-width="3.87879" stroke-miterlimit="10" stroke-linecap="round" stroke-linejoin="round"/>
<path d="M645.086 35.2941L663.445 34.2592" stroke="black" stroke-width="3.87879" stroke-miterlimit="10" stroke-linecap="round" stroke-linejoin="round"/>
<path d="M657.159 44.621C652.208 46.1865 649.345 49.3432 649.443 53.8092C649.553 58.6637 654.75 60.5066 659.869 61.1663C664.989 61.826 672.251 61.5559 672.519 55.2604C672.662 51.8997 670.148 49.5777 665.523 48.9903" fill="#00A03C"/>
<path d="M657.159 44.621C652.208 46.1865 649.345 49.3432 649.443 53.8092C649.553 58.6637 654.75 60.5066 659.869 61.1663C664.989 61.826 672.251 61.5559 672.519 55.2604C672.662 51.8997 670.148 49.5777 665.523 48.9903" stroke="black" stroke-width="4.52525" stroke-miterlimit="10" stroke-linecap="round" stroke-linejoin="round"/>
<path d="M664.409 21.433C664.409 21.433 667.64 13.4022 676.746 13.6297C685.958 13.8593 687.082 21.3685 687.082 21.3685C687.082 21.3685 684.93 28.7904 674.887 28.5379C666.551 28.3279 664.409 21.433 664.409 21.433Z" fill="#FFD200" stroke="black" stroke-width="3.87879" stroke-miterlimit="10" stroke-linecap="round" stroke-linejoin="round"/>
<path d="M679.935 14.1677C680.083 12.9665 679.215 13.0588 678.159 13.0277C677.934 13.0202 677.717 13.0665 677.507 13.1401C677.319 13.0563 677.114 12.9975 676.889 12.99C675.834 12.9588 674.993 12.8214 674.851 14.0232L673.127 28.104C672.979 29.3053 673.847 29.2129 674.903 29.2441C675.128 29.2516 675.344 29.2052 675.554 29.1317C675.743 29.2155 675.947 29.2742 676.172 29.2817C677.228 29.3129 678.069 29.4503 678.211 28.2486L679.935 14.1677Z" fill="black"/>
</g>
<path d="M207.305 187.176C203.213 191.255 201.073 196.272 203.407 202.219C207.667 213.093 227.559 216.092 236.985 201.831" fill="white"/>
<path d="M236.985 201.838C227.566 216.099 207.674 213.093 203.407 202.226C199.677 192.703 207.383 185.579 216.24 180.841" stroke="black" stroke-width="4.52525" stroke-miterlimit="10" stroke-linecap="round" stroke-linejoin="round"/>
<path d="M214.83 192.703C214.83 192.703 222.213 189.665 227.281 182.858L214.83 192.703Z" fill="white"/>
<path d="M214.83 192.703C214.83 192.703 222.213 189.665 227.281 182.858" stroke="black" stroke-width="4.52525" stroke-miterlimit="10" stroke-linecap="round" stroke-linejoin="round"/>
<path d="M234.159 169.03C233.351 168.306 232.259 167.827 230.798 167.795C225.716 167.672 223.402 172.534 223.777 178.403C224.1 183.433 225.27 192.231 229.11 200.409C232.95 208.587 236.932 210.1 245.382 209.22C251.116 208.619 258.531 199.963 256.928 187.958C255.518 177.395 252.777 174.376 252.777 174.376" fill="#FABE3C"/>
<path d="M234.159 169.03C233.351 168.306 232.259 167.827 230.798 167.795C225.716 167.672 223.402 172.534 223.777 178.403C224.1 183.433 225.27 192.231 229.11 200.409C232.95 208.587 236.932 210.1 245.382 209.22C251.116 208.619 258.531 199.963 256.928 187.958C255.518 177.395 252.777 174.376 252.777 174.376" stroke="black" stroke-width="4.52525" stroke-miterlimit="10" stroke-linecap="round" stroke-linejoin="round"/>
<path d="M234.832 169.689C234.832 169.689 235.847 166.185 239.913 166.476C243.979 166.767 246.293 171.797 245.602 177.124" fill="#FABE3C"/>
<path d="M234.832 169.689C234.832 169.689 235.847 166.185 239.913 166.476C243.979 166.767 246.293 171.797 245.602 177.124" stroke="black" stroke-width="4.52525" stroke-miterlimit="10" stroke-linecap="round" stroke-linejoin="round"/>
<path d="M236.305 175.339C236.351 173.406 235.937 170.62 234.159 169.023L236.305 175.339Z" fill="#FABE3C"/>
<path d="M236.305 175.339C236.351 173.406 235.937 170.62 234.159 169.023" stroke="black" stroke-width="4.52525" stroke-miterlimit="10" stroke-linecap="round" stroke-linejoin="round"/>
<path d="M256.74 169.133C256.1 168.253 255.137 167.555 253.715 167.213C248.776 166.017 245.485 170.277 244.612 176.095C243.863 181.079 243.151 189.929 245.175 198.734C247.198 207.539 251.336 211.192 259.791 212.032C268.247 212.872 273.167 204.417 274.996 192.444C276.768 180.827 276.58 175.953 275.423 172.08C274.376 168.583 269.896 166.96 267.556 168.376" fill="#FABE3C"/>
<path d="M256.74 169.133C256.1 168.253 255.137 167.555 253.715 167.213C248.776 166.017 245.485 170.277 244.612 176.095C243.863 181.079 243.151 189.929 245.175 198.734C247.198 207.539 251.336 211.192 259.791 212.032C268.247 212.872 273.167 204.417 274.996 192.444C276.768 180.827 276.58 175.953 275.423 172.08C274.376 168.583 269.896 166.96 267.556 168.376" stroke="black" stroke-width="4.52525" stroke-miterlimit="10" stroke-linecap="round" stroke-linejoin="round"/>
<path d="M257.005 168.752C257.005 168.752 258.628 166.037 262.656 166.689C266.683 167.342 268.584 169.986 267.194 176.322" fill="#FABE3C"/>
<path d="M257.005 168.752C257.005 168.752 258.628 166.037 262.656 166.689C266.683 167.342 268.584 169.986 267.194 176.322" stroke="black" stroke-width="4.52525" stroke-miterlimit="10" stroke-linecap="round" stroke-linejoin="round"/>
<path d="M257.503 175.759C257.955 173.884 258.143 171.066 256.74 169.133L257.503 175.759Z" fill="#FABE3C"/>
<path d="M257.503 175.759C257.955 173.884 258.143 171.066 256.74 169.133" stroke="black" stroke-width="4.52525" stroke-miterlimit="10" stroke-linecap="round" stroke-linejoin="round"/>
<path d="M303.661 188.617C304.637 191.345 305.018 194.545 304.598 198.353C303.37 209.427 292.399 215.278 276.8 212.685C261.059 210.067 252.959 198.082 258.305 188.63C262.714 180.84 272.773 183.446 276.044 187.279C279.768 191.643 285.256 193.304 288.475 192.632" fill="white"/>
<path d="M292.962 177.13C300.247 181.338 305.826 187.273 304.592 198.347C303.363 209.421 292.393 215.271 276.794 212.679C261.052 210.061 252.952 198.075 258.298 188.624C262.707 180.834 272.766 183.439 276.037 187.273C279.761 191.637 285.249 193.298 288.469 192.626" stroke="black" stroke-width="4.52525" stroke-miterlimit="10" stroke-linecap="round" stroke-linejoin="round"/>
<path d="M329.661 202.523C329.661 190.867 345.034 189.626 361.228 189.232C378.256 188.818 396.318 190.111 396.318 202.064C396.318 212.556 386.795 215.271 361.299 215.245C348.602 215.232 329.654 216.551 329.661 202.523Z" fill="#FFD200" stroke="black" stroke-width="4.52525" stroke-linecap="round" stroke-linejoin="round"/>
<path d="M463.479 202.775C463.479 190.499 448.216 189.387 432.009 189.244C414.975 189.096 396.893 190.628 396.893 201.818C396.893 212.97 408.155 215.278 431.744 215.258C444.441 215.252 463.479 216.797 463.479 202.775Z" fill="#FFD200" stroke="black" stroke-width="4.52525" stroke-linecap="round" stroke-linejoin="round"/>
<path d="M580.134 194.94C580.845 196.847 581.336 199.064 581.511 201.637C582.558 217.081 568.62 223.171 554.676 223.624C540.738 224.083 523.646 222.925 522.87 208.18C522.081 193.246 539.982 191.895 549.44 191.391" fill="#FFD677"/>
<path d="M567.612 183.944C573.268 185.482 580.709 189.788 581.511 201.631C582.558 217.075 568.62 223.165 554.676 223.617C540.738 224.076 523.646 222.919 522.87 208.173C522.081 193.24 539.982 191.889 549.44 191.384C556.131 191.029 561.723 187.583 561.723 187.583" stroke="black" stroke-width="4.52525" stroke-miterlimit="10" stroke-linecap="round" stroke-linejoin="round"/>
<path d="M466.654 173.814C463.654 156.779 455.812 155.383 450.718 158.402C440.976 164.175 441.435 175.759 447.596 187.467C452.043 195.916 458.76 202.989 467.229 209.492C470.377 211.91 472.336 195.612 467.927 183.207" fill="#FFD677"/>
<path d="M465.335 159.32C460.577 156.307 455.812 155.383 450.718 158.402C440.976 164.175 441.435 175.759 447.596 187.467C452.496 196.776 460.157 204.417 469.886 211.477" stroke="black" stroke-width="4.52525" stroke-miterlimit="10" stroke-linecap="round" stroke-linejoin="round"/>
<path d="M462.884 170.439C464.494 172.346 464.158 175.061 461.029 177.401C458.068 179.612 455.12 179.198 453.827 177.065C452.45 174.783 453.181 171.932 455.682 170.103C458.184 168.273 461.009 168.208 462.884 170.439Z" fill="#E6756A"/>
<path d="M459.988 164.33C460.66 165.144 460.796 166.263 459.729 167.032C458.869 167.653 457.861 167.627 457.13 166.857C456.361 166.043 456.419 164.685 457.285 164.071C458.255 163.379 459.309 163.515 459.988 164.33Z" fill="#E6756A"/>
<path d="M454.829 168.584C454.299 169.502 453.284 169.889 452.211 169.295C451.28 168.784 450.996 167.756 451.461 166.806C451.953 165.797 453.246 165.377 454.125 165.965C455.114 166.625 455.359 167.666 454.829 168.584Z" fill="#E6756A"/>
<path d="M451.843 173.361C451.313 174.279 450.298 174.667 449.225 174.072C448.294 173.561 448.009 172.534 448.475 171.583C448.966 170.575 450.362 170.232 451.138 170.743C452.127 171.402 452.373 172.443 451.843 173.361Z" fill="#E6756A"/>
<path d="M663.147 204.029C663.147 195.625 668.325 188.443 682.269 184.959C696.213 181.474 718.975 182.386 725.265 183.207C732.389 184.138 742.293 188.553 742.293 200.034C742.293 212.123 736.798 217.482 725.718 219.978C716.37 222.085 692.192 223.074 679.211 221.051C668.415 219.363 663.147 213.998 663.147 204.029Z" fill="#FAAA30" stroke="black" stroke-width="4.52525" stroke-miterlimit="10" stroke-linecap="round" stroke-linejoin="round"/>
<path d="M663.147 203.706C663.147 195.302 657.328 188.346 643.391 184.861C629.453 181.377 606.788 182.198 600.498 183.019C593.374 183.95 583.521 188.146 583.521 199.627C583.521 211.716 589.016 217.075 600.097 219.57C609.445 221.678 634.463 223.113 647.437 221.083C658.233 219.396 663.147 213.674 663.147 203.706Z" fill="#FAAA30" stroke="black" stroke-width="4.52525" stroke-miterlimit="10" stroke-linecap="round" stroke-linejoin="round"/>
<path d="M855.191 204.617C855.903 206.55 856.349 208.903 855.903 211.476C854.681 218.562 849.974 220.889 835.875 221.277C822.597 221.645 815.046 219.37 814.639 212.608C814.477 209.88 815.343 207.611 816.927 205.872" fill="white"/>
<path d="M852.206 199.523C852.206 199.523 857.061 204.773 855.911 211.476C854.689 218.562 849.982 220.889 835.883 221.277C822.605 221.645 815.054 219.37 814.647 212.608C814.304 206.906 818.487 203.182 824.292 202.2" stroke="black" stroke-width="4.52525" stroke-miterlimit="10" stroke-linecap="round" stroke-linejoin="round"/>
<path d="M913.044 201.069C912.869 194.572 911.234 182.528 906.715 173.788C904.608 169.709 901.634 167.711 898.783 168.901C898.156 169.166 897.535 169.651 897.057 170.355C897.057 170.355 894.212 167.886 890.857 169.237C889.571 169.754 888.724 170.685 888.252 171.862C887.302 171.079 883.352 169.838 881.044 173.581C878.801 177.214 881.283 182.806 884.367 186.401C887.45 189.995 889.862 193.66 890.004 202.239C890.269 217.644 900.108 221.988 916.483 216.675L929.581 209.712L913.044 201.069Z" fill="#769ECD"/>
<path d="M910.083 182.457C909.204 179.425 908.092 176.452 906.715 173.788C904.608 169.709 901.634 167.711 898.783 168.901C898.156 169.166 897.535 169.651 897.057 170.355C897.057 170.355 894.212 167.886 890.857 169.237C889.571 169.754 888.724 170.685 888.252 171.862C887.302 171.079 883.352 169.838 881.044 173.581C878.801 177.214 881.283 182.806 884.367 186.401C885.026 187.17 885.653 187.946 886.235 188.767C892.829 189.504 901.944 189.73 910.083 182.457Z" fill="white"/>
<path d="M888.245 171.854C887.295 171.072 883.345 169.831 881.037 173.574C878.794 177.207 881.276 182.799 884.36 186.393C887.444 189.988 889.855 193.653 889.997 202.232C890.262 217.637 900.101 221.981 916.476 216.667" stroke="black" stroke-width="4.52525" stroke-miterlimit="10" stroke-linecap="round" stroke-linejoin="round"/>
<path d="M913.044 201.068C912.869 194.571 911.234 182.527 906.715 173.787C904.608 169.708 901.634 167.71 898.783 168.9C897.012 169.643 895.318 172.119 896.662 176.237" stroke="black" stroke-width="4.52525" stroke-miterlimit="10" stroke-linecap="round" stroke-linejoin="round"/>
<path d="M888.245 171.861C888.717 170.684 889.564 169.753 890.85 169.236C894.205 167.885 897.05 170.355 897.05 170.355" stroke="black" stroke-width="4.52525" stroke-miterlimit="10" stroke-linecap="round" stroke-linejoin="round"/>
<path d="M888.711 178.914C887.721 176.341 887.489 173.768 888.252 171.861" stroke="black" stroke-width="4.52525" stroke-miterlimit="10" stroke-linecap="round" stroke-linejoin="round"/>
<path d="M993.464 194.552C991.712 192.974 991.143 196.705 987.743 198.036C978.608 201.605 974.173 196.22 974.173 196.22C964.864 198.308 947.707 200.273 933.33 202.982C925.398 204.475 917.97 208.664 916.683 214.159C915.507 219.176 919.625 222.57 923.057 221.91L923.109 221.884C923.794 224.244 925.915 226.061 930.265 225.446C931.785 228.11 935.767 228.582 938.217 226.875C943.169 223.423 954.67 220.934 965.608 219.757C978.162 218.406 987.167 219.072 992.126 216.228C997.608 213.086 998.118 207.934 997.86 202.872C997.705 199.614 995.901 196.743 993.464 194.552Z" fill="#769ECD"/>
<path d="M932.8 203.092C925.068 204.669 917.944 208.787 916.683 214.159C915.507 219.176 919.625 222.57 923.057 221.91L923.109 221.884C923.794 224.244 925.915 226.06 930.265 225.446C931.785 228.11 935.767 228.582 938.217 226.875C940.331 225.401 943.647 224.102 947.604 223.003C949.769 212.168 940.137 205.626 932.8 203.092Z" fill="white"/>
<path d="M923.064 221.91C919.631 222.57 915.513 219.182 916.69 214.159C917.976 208.664 925.404 204.475 933.336 202.982C949.782 199.885 969.868 197.758 977.677 195.308" stroke="black" stroke-width="4.52525" stroke-miterlimit="10" stroke-linecap="round" stroke-linejoin="round"/>
<path d="M925.146 214.508C921.849 217.055 921.008 226.752 930.272 225.446" stroke="black" stroke-width="4.52525" stroke-miterlimit="10" stroke-linecap="round" stroke-linejoin="round"/>
<path d="M988.958 191.546C993.36 193.653 997.608 197.79 997.866 202.872C998.125 207.934 997.614 213.086 992.132 216.228C987.174 219.072 978.162 218.406 965.614 219.757C954.676 220.934 943.175 223.423 938.223 226.875C935.773 228.582 931.791 228.116 930.272 225.446C928.623 222.557 930.143 219.486 932.47 218.548" stroke="black" stroke-width="4.52525" stroke-miterlimit="10" stroke-linecap="round" stroke-linejoin="round"/>
<path d="M1086.17 210.487C1085.77 204.158 1079.48 198.256 1061.42 197.041C1043.36 195.825 1035.8 192.063 1027.75 192.056C1020.09 192.05 1016.47 196.789 1015.45 201.637C1014.36 206.815 1015.34 212.976 1025.28 216.254C1035.23 219.531 1045.8 217.243 1061.69 220.96C1066.51 222.085 1070.99 223.998 1073.52 220.831C1073.94 220.294 1074.23 219.719 1074.4 219.137C1078.06 220.152 1080.44 218.309 1080.8 215.749L1080.85 215.762C1083.79 215.84 1086.37 213.842 1086.17 210.487Z" fill="#BE8E3C"/>
<path d="M1072.59 213.791C1074.54 215.206 1075.46 218.38 1073.52 220.831C1070.99 223.998 1066.51 222.085 1061.69 220.96C1045.8 217.249 1035.23 219.531 1025.28 216.254C1015.34 212.976 1014.37 206.815 1015.45 201.637C1016.47 196.789 1020.09 192.05 1027.75 192.056C1035.8 192.063 1043.36 195.825 1061.42 197.041C1079.48 198.256 1085.77 204.158 1086.17 210.487C1086.37 213.842 1083.79 215.833 1080.85 215.756" stroke="black" stroke-width="4.52525" stroke-miterlimit="10" stroke-linecap="round" stroke-linejoin="round"/>
<path d="M1079.03 210.713C1082.88 214.973 1080.32 220.766 1074.4 219.13" stroke="black" stroke-width="4.52525" stroke-miterlimit="10" stroke-linecap="round" stroke-linejoin="round"/>
<path d="M1132.9 159.888L1132.16 159.895C1133.13 157.645 1132.84 155.641 1131.47 154.451C1128.52 151.904 1125.21 154.568 1125.21 154.568C1125.16 153.527 1124.74 152.493 1123.72 151.62C1121.13 149.396 1115.82 151.096 1111.44 157.619C1107.05 164.142 1103.33 171.389 1101.49 185.624C1099.89 198.017 1100.44 214.98 1115.65 213.965C1129.79 213.021 1124.57 195.715 1126.12 186.645C1127.66 177.569 1130.55 173.709 1136.04 167.575C1139.11 164.122 1137.26 158.802 1132.9 159.888Z" fill="#BE8E3C"/>
<path d="M1122.6 160.166C1123.94 158.977 1127.05 154.484 1123.71 151.62C1121.13 149.396 1115.81 151.096 1111.43 157.619C1107.05 164.142 1103.32 171.389 1101.48 185.624C1099.88 198.017 1100.44 214.98 1115.65 213.965C1129.78 213.021 1124.57 195.715 1126.11 186.645C1127.66 177.569 1130.55 173.709 1136.03 167.575C1139.11 164.129 1137.26 158.815 1132.89 159.895" stroke="black" stroke-width="4.52525" stroke-miterlimit="10" stroke-linecap="round" stroke-linejoin="round"/>
<path d="M1125.21 154.568C1125.21 154.568 1128.52 151.904 1131.47 154.451C1133.8 156.462 1132.73 161.136 1128.53 164.459" stroke="black" stroke-width="4.52525" stroke-miterlimit="10" stroke-linecap="round" stroke-linejoin="round"/>
<path d="M155.309 182.159C155.309 182.159 127.04 184.305 121.558 190.654C116.076 197.002 132.108 210.306 144.61 211.476C176.442 214.456 179.985 201.592 178.201 188.611C176.404 175.585 158.826 168.545 153.545 167.012" fill="#1A1A1A"/>
<path d="M155.309 182.159C155.309 182.159 127.04 184.305 121.558 190.654C116.076 197.002 132.108 210.306 144.61 211.476C176.442 214.456 179.985 201.592 178.201 188.611C176.404 175.585 158.826 168.545 153.545 167.012" stroke="black" stroke-width="4.52525" stroke-miterlimit="10" stroke-linecap="round" stroke-linejoin="round"/>
<path d="M128.701 208.431C129.593 209.963 131.274 211.269 133.905 212.026C137.325 213.008 143.421 211.877 145.322 207.255C148.127 200.422 143.499 191.5 133.401 189.218C123.898 187.072 114.899 189.555 111.24 195.916C107.335 202.704 111.893 211.05 118.177 207.992" fill="#825C20"/>
<path d="M128.701 208.431C129.593 209.963 131.274 211.269 133.905 212.026C137.325 213.008 143.421 211.877 145.322 207.255C148.127 200.422 143.499 191.5 133.401 189.218C123.898 187.072 114.899 189.555 111.24 195.916C107.335 202.704 111.893 211.05 118.177 207.992" stroke="black" stroke-width="4.52525" stroke-miterlimit="10" stroke-linecap="round" stroke-linejoin="round"/>
<path d="M118.674 199.989C117.252 202.419 117.065 208.257 122.049 209.653C126.439 210.888 128.701 208.425 128.701 208.425" fill="#825C20"/>
<path d="M118.674 199.989C117.252 202.419 117.065 208.257 122.049 209.653C126.439 210.888 128.701 208.425 128.701 208.425" stroke="black" stroke-width="4.52525" stroke-miterlimit="10" stroke-linecap="round" stroke-linejoin="round"/>
<path d="M129.005 201.521C127.751 204.126 127.583 206.505 128.701 208.425L129.005 201.521Z" fill="#825C20"/>
<path d="M129.005 201.521C127.751 204.126 127.583 206.505 128.701 208.425" stroke="black" stroke-width="4.52525" stroke-miterlimit="10" stroke-linecap="round" stroke-linejoin="round"/>
<defs>
<clipPath id="clip0">
<rect width="1141" height="212" fill="white"/>
</clipPath>
</defs>
</svg>
